# xmcd CD database file
#
# Track frame offsets:
#	150
#	18250
#	40695
#	63620
#	81635
#	100027
#	117735
#	131755
#	156820
#	168212
#
# Disc length: 2490 seconds
#
# Revision: 0
# Processed by: cddbd v1.5PL3 Copyright (c) Steve Scherf et al.
# Submitted via: CDex 1.51
#
DISCID=8209b80a
DTITLE=Luminous Orange - Sugar Coated
DYEAR=1998
DGENRE=Rock and Roll
TTITLE0=Tears of Honey
TTITLE1=Language ofthe wind
TTITLE2=Starquake
TTITLE3=Puppy Dog Mail
TTITLE4=Sugar coated
TTITLE5=Another Sick New World
TTITLE6=Chelsea Girl
TTITLE7=Honey Eyes
TTITLE8=Heather Scent the Air
TTITLE9=Classified
EXTD=YEAR: 1998
EXTT0=
EXTT1=
EXTT2=
EXTT3=
EXTT4=
EXTT5=
EXTT6=
EXTT7=
EXTT8=
EXTT9=
PLAYORDER=
